<svg width="34" height="24" viewBox="0 0 34 24" fill="none" xmlns="http://www.w3.org/2000/svg">
<path fill-rule="evenodd" clip-rule="evenodd" d="M18.71 6.70998C18.32 6.31998 17.69 6.31998 17.3 6.70998L12.71 11.3C12.32 11.69 12.32 12.32 12.71 12.71L17.3 17.3C17.69 17.69 18.32 17.69 18.71 17.3C19.1 16.91 19.1 16.28 18.71 15.89L14.83 12L18.71 8.11998C19.1 7.72998 19.09 7.08998 18.71 6.70998Z" fill="#18214D"/>
<path fill-rule="evenodd" clip-rule="evenodd" d="M13.71 6.70998C13.32 6.31998 12.69 6.31998 12.3 6.70998L7.70998 11.3C7.31998 11.69 7.31998 12.32 7.70998 12.71L12.3 17.3C12.69 17.69 13.32 17.69 13.71 17.3C14.1 16.91 14.1 16.28 13.71 15.89L9.82998 12L13.71 8.11998C14.1 7.72998 14.09 7.08998 13.71 6.70998Z" fill="#18214D"/>
<path fill-rule="evenodd" clip-rule="evenodd" d="M23.71 6.70998C23.32 6.31998 22.69 6.31998 22.3 6.70998L17.71 11.3C17.32 11.69 17.32 12.32 17.71 12.71L22.3 17.3C22.69 17.69 23.32 17.69 23.71 17.3C24.1 16.91 24.1 16.28 23.71 15.89L19.83 12L23.71 8.11998C24.1 7.72998 24.09 7.08998 23.71 6.70998Z" fill="#18214D"/>
</svg>
