<svg width="34" height="24" viewBox="0 0 34 24" fill="none" xmlns="http://www.w3.org/2000/svg">
<path fill-rule="evenodd" clip-rule="evenodd" d="M9.70994 17.3C10.0999 17.69 10.7299 17.69 11.1199 17.3L15.7099 12.71C16.0999 12.32 16.0999 11.69 15.7099 11.3L11.1199 6.71003C10.7299 6.32003 10.0999 6.32003 9.70994 6.71003C9.31994 7.10003 9.31994 7.73003 9.70994 8.12003L13.5899 12.01L9.70994 15.89C9.31994 16.28 9.32994 16.92 9.70994 17.3Z" fill="#18214D"/>
<path fill-rule="evenodd" clip-rule="evenodd" d="M19.7099 17.3C20.0999 17.69 20.7299 17.69 21.1199 17.3L25.7099 12.71C26.0999 12.32 26.0999 11.69 25.7099 11.3L21.1199 6.71003C20.7299 6.32003 20.0999 6.32003 19.7099 6.71003C19.3199 7.10003 19.3199 7.73003 19.7099 8.12003L23.5899 12.01L19.7099 15.89C19.3199 16.28 19.3299 16.92 19.7099 17.3Z" fill="#18214D"/>
<path fill-rule="evenodd" clip-rule="evenodd" d="M14.7099 17.3C15.0999 17.69 15.7299 17.69 16.1199 17.3L20.7099 12.71C21.0999 12.32 21.0999 11.69 20.7099 11.3L16.1199 6.71003C15.7299 6.32003 15.0999 6.32003 14.7099 6.71003C14.3199 7.10003 14.3199 7.73003 14.7099 8.12003L18.5899 12.01L14.7099 15.89C14.3199 16.28 14.3299 16.92 14.7099 17.3Z" fill="#18214D"/>
</svg>
