<svg width="25" height="25" viewBox="0 0 25 25" fill="none" xmlns="http://www.w3.org/2000/svg">
<path fill-rule="evenodd" clip-rule="evenodd" d="M9.63831 12.125C8.94831 12.125 8.38831 12.685 8.38831 13.375C8.38831 14.065 8.94831 14.625 9.63831 14.625C10.3283 14.625 10.8883 14.065 10.8883 13.375C10.8883 12.685 10.3283 12.125 9.63831 12.125ZM15.6383 12.125C14.9483 12.125 14.3883 12.685 14.3883 13.375C14.3883 14.065 14.9483 14.625 15.6383 14.625C16.3283 14.625 16.8883 14.065 16.8883 13.375C16.8883 12.685 16.3283 12.125 15.6383 12.125ZM12.6383 2.375C7.11831 2.375 2.63831 6.855 2.63831 12.375C2.63831 17.895 7.11831 22.375 12.6383 22.375C18.1583 22.375 22.6383 17.895 22.6383 12.375C22.6383 6.855 18.1583 2.375 12.6383 2.375ZM12.6383 20.375C8.22831 20.375 4.63831 16.785 4.63831 12.375C4.63831 12.085 4.65831 11.795 4.68831 11.515C7.04831 10.465 8.91831 8.535 9.89831 6.145C11.7083 8.705 14.6883 10.375 18.0583 10.375C18.8383 10.375 19.5883 10.285 20.3083 10.115C20.5183 10.825 20.6383 11.585 20.6383 12.375C20.6383 16.785 17.0483 20.375 12.6383 20.375Z" fill="#18214D"/>
</svg>
