<svg width="24" height="24" viewBox="0 0 24 24" fill="none" xmlns="http://www.w3.org/2000/svg">
<path fill-rule="evenodd" clip-rule="evenodd" d="M12.72 2.03007C6.63001 1.60007 1.60001 6.63007 2.03001 12.7201C2.39001 18.0101 7.01001 22.0001 12.31 22.0001H16C16.55 22.0001 17 21.5501 17 21.0001C17 20.4501 16.55 20.0001 16 20.0001H12.33C8.60001 20.0001 5.18001 17.5801 4.25001 13.9701C2.76001 8.17007 8.16001 2.76007 13.96 4.26007C17.58 5.18007 20 8.60007 20 12.3301V13.4301C20 14.2201 19.29 15.0001 18.5 15.0001C17.71 15.0001 17 14.2201 17 13.4301V12.1801C17 9.67007 15.22 7.41007 12.74 7.06007C9.34001 6.57007 6.47001 9.51007 7.08001 12.9301C7.42001 14.8401 8.91001 16.4201 10.8 16.8701C12.64 17.3001 14.39 16.7101 15.54 15.5401C16.43 16.7601 18.21 17.4001 19.84 16.7501C21.18 16.2201 22 14.8501 22 13.4101V12.3201C22 7.01007 18.01 2.39007 12.72 2.03007ZM12 15.0001C10.34 15.0001 9.00001 13.6601 9.00001 12.0001C9.00001 10.3401 10.34 9.00007 12 9.00007C13.66 9.00007 15 10.3401 15 12.0001C15 13.6601 13.66 15.0001 12 15.0001Z" fill="#18214D"/>
</svg>
