<svg width="25" height="25" viewBox="0 0 25 25" fill="none" xmlns="http://www.w3.org/2000/svg">
<path fill-rule="evenodd" clip-rule="evenodd" d="M19.5134 11.3527H12.7862C12.7862 12.0523 12.7862 13.4515 12.7819 14.1511H16.6802C16.5308 14.8507 16.0011 15.8302 15.2528 16.3234C15.2521 16.3227 15.2514 16.3276 15.25 16.3269C14.255 16.9838 12.942 17.1329 11.9671 16.937C10.439 16.6333 9.22967 15.5252 8.73864 14.1175C8.7415 14.1154 8.74364 14.0959 8.74578 14.0945C8.43844 13.2214 8.43844 12.0523 8.74578 11.3527H8.74507C9.14104 10.0668 10.3868 8.89359 11.9171 8.57247C13.1479 8.31152 14.5366 8.59416 15.558 9.54982C15.6938 9.4169 17.4378 7.71405 17.5686 7.57553C14.0792 4.41541 8.49205 5.52708 6.40143 9.60789H6.40071C6.40071 9.60789 6.40143 9.60789 6.39714 9.61558C5.3629 11.62 5.40579 13.9818 6.40428 15.8904C6.40143 15.8925 6.39928 15.8938 6.39714 15.8959C7.302 17.652 8.94877 18.9987 10.9329 19.5115C13.0407 20.0642 15.7231 19.6864 17.52 18.0612C17.5207 18.0619 17.5214 18.0626 17.5221 18.0633C19.0445 16.6921 19.9923 14.3561 19.5134 11.3527Z" fill="#345DEE"/>
</svg>
