<?xml version="1.0" encoding="UTF-8"?>
<svg xmlns="http://www.w3.org/2000/svg" xmlns:xlink="http://www.w3.org/1999/xlink" width="50pt" height="50pt" viewBox="0 0 50 50" version="1.1">
<g id="surface1">
<path style=" stroke:none;fill-rule:nonzero;fill:rgb(100%,75.686275%,2.745098%);fill-opacity:1;" d="M 49.851562 19.171875 C 49.523438 18.160156 48.625 17.441406 47.5625 17.34375 L 33.136719 16.035156 L 27.433594 2.683594 C 27.011719 1.707031 26.054688 1.074219 24.992188 1.074219 C 23.925781 1.074219 22.96875 1.707031 22.546875 2.6875 L 16.84375 16.035156 L 2.414062 17.34375 C 1.355469 17.445312 0.460938 18.160156 0.128906 19.171875 C -0.199219 20.183594 0.105469 21.292969 0.90625 21.992188 L 11.8125 31.558594 L 8.597656 45.722656 C 8.359375 46.761719 8.765625 47.839844 9.628906 48.464844 C 10.09375 48.800781 10.636719 48.96875 11.183594 48.96875 C 11.65625 48.96875 12.125 48.84375 12.546875 48.589844 L 24.992188 41.152344 L 37.429688 48.589844 C 38.339844 49.136719 39.488281 49.089844 40.347656 48.464844 C 41.214844 47.835938 41.617188 46.761719 41.382812 45.722656 L 38.167969 31.558594 L 49.070312 21.996094 C 49.871094 21.292969 50.179688 20.1875 49.851562 19.171875 Z M 49.851562 19.171875 "/>
</g>
</svg>
