<svg width="156" height="156" viewBox="0 0 156 156" fill="none" xmlns="http://www.w3.org/2000/svg">
<g clip-path="url(#clip0)">
<path d="M0.00299072 0V155.139C0.688991 155.139 1.36899 155.139 2.05599 155.139C2.38399 152.925 2.95099 150.944 3.63099 149.047C3.69699 148.874 3.75599 148.695 3.81599 148.534C7.05599 139.954 13.745 134.41 23.047 130.985C30.547 128.21 37.893 125.018 45.178 121.707C47.26 120.764 48.788 118.688 50.673 117.25C51.502 116.629 52.505 116.033 53.495 115.872C56.866 115.335 58.358 114.136 59.169 110.8C60.219 106.432 60.965 102.059 60.046 97.5C59.658 95.519 58.924 94.248 56.991 93.49C52.981 91.927 49.043 90.19 45.081 88.514C42.121 87.255 41.936 86.217 43.005 83.156C46.418 73.49 48.948 63.668 49.777 53.34C50.398 45.601 49.884 37.641 52.689 30.177C54.682 24.914 57.934 20.039 63.25 18.476C67.325 17.283 70.834 14.568 75.124 13.977C75.882 13.929 76.628 13.822 77.409 13.864C77.493 13.87 77.57 13.888 77.654 13.894C87.828 14.538 99.958 20.678 102.828 31.974C102.977 32.559 103.061 33.155 103.192 33.746H103.443C105.024 40.154 104.857 46.819 105.376 53.341C106.205 63.67 108.729 73.491 112.148 83.157C113.228 86.224 113.025 87.262 110.066 88.515C106.11 90.192 102.172 91.928 98.162 93.491C96.229 94.249 95.507 95.52 95.101 97.501C94.2 102.054 94.946 106.416 95.984 110.801C96.79 114.136 98.281 115.336 101.658 115.873C102.649 116.034 103.651 116.619 104.48 117.251C106.354 118.689 107.893 120.765 109.97 121.708C117.256 125.02 124.607 128.212 132.101 130.986C142.483 134.823 149.644 141.243 152.335 151.637H152.496C152.753 152.777 152.985 153.946 153.134 155.146C153.796 155.146 154.477 155.146 155.139 155.146V0C103.397 0 51.694 0 0.00299072 0Z" fill="#010002"/>
</g>
<defs>
<clipPath id="clip0">
<rect width="155.145" height="155.145" rx="8" fill="white"/>
</clipPath>
</defs>
</svg>
