<svg width="34" height="34" viewBox="0 0 34 34" fill="none" xmlns="http://www.w3.org/2000/svg">
<path d="M8.83467 10.5029H6.42842C5.74092 10.5029 5.60341 10.8266 5.60341 11.1835C5.60341 11.8208 6.41918 14.9819 9.40178 19.1626C11.3902 22.0177 14.1917 23.5654 16.7409 23.5654C18.2704 23.5654 18.4597 23.2217 18.4597 22.6296V20.4717C18.4597 19.7842 18.6046 19.647 19.0889 19.647C19.4458 19.647 20.0576 19.8254 21.4852 21.202C23.1167 22.8335 23.3857 23.5654 24.3034 23.5654H26.7097C27.3972 23.5654 27.7409 23.2217 27.5426 22.5433C27.3256 21.8672 26.5467 20.8863 25.5131 19.7234C24.9522 19.0607 24.111 18.3469 23.856 17.9899C23.4991 17.5311 23.6011 17.3271 23.856 16.9193L23.8988 16.8586C24.2614 16.3432 26.8095 12.6893 27.0936 11.3874C27.2465 10.8776 27.0936 10.5029 26.3659 10.5029H23.9597C23.3478 10.5029 23.0658 10.8266 22.9128 11.1835C22.9128 11.1835 21.6891 14.1661 19.9557 16.1035C19.3948 16.6643 19.1399 16.8428 18.834 16.8428C18.681 16.8428 18.4596 16.6643 18.4596 16.1545V11.3874C18.4596 10.7756 18.2821 10.5029 17.7722 10.5029H13.9909C13.6086 10.5029 13.3786 10.7869 13.3786 11.056C13.3786 11.636 14.2453 11.7698 14.3347 13.4013V16.9448C14.3347 17.7217 14.1944 17.8625 13.8884 17.8625C13.0727 17.8625 11.0885 14.8666 9.9116 11.4384C9.68096 10.7721 9.44964 10.5029 8.83467 10.5029Z" fill="#345DEE"/>
</svg>
